<?xml version="1.0" standalone="no"?>
<!DOCTYPE svg PUBLIC "-//W3C//DTD SVG 20010904//EN"
 "http://www.w3.org/TR/2001/REC-SVG-20010904/DTD/svg10.dtd">
<svg version="1.0" xmlns="http://www.w3.org/2000/svg"
 width="1536.000000pt" height="1536.000000pt" viewBox="0 0 1536.000000 1536.000000"
 preserveAspectRatio="xMidYMid meet">

<g transform="translate(0.000000,1536.000000) scale(0.100000,-0.100000)"
fill="#000000" stroke="none">
<path d="M6185 12150 c-77 -4 -153 -10 -170 -13 -16 -3 -50 -8 -75 -12 -524
-74 -999 -278 -1440 -619 -133 -103 -423 -390 -528 -523 -224 -284 -412 -625
-527 -953 -79 -229 -132 -453 -177 -760 l-22 -145 -3 -2599 c-4 -2832 -7
-2650 49 -2746 36 -59 110 -130 173 -163 l60 -32 979 -3 c1061 -3 1015 -5
1136 50 60 27 158 130 193 200 25 54 100 311 202 703 25 94 58 220 74 280 16
61 59 223 95 360 36 138 86 329 111 425 26 96 68 258 95 360 75 288 176 670
220 835 22 83 61 229 86 325 25 96 68 258 95 360 27 102 65 244 83 315 19 72
46 173 61 225 14 52 43 160 64 240 155 580 189 697 259 875 153 393 377 700
670 918 105 78 190 132 197 126 2 -2 29 -96 60 -209 31 -113 81 -295 112 -405
30 -110 73 -267 94 -350 22 -82 66 -246 99 -365 32 -118 84 -309 115 -425 31
-115 89 -331 130 -480 98 -363 219 -818 265 -995 21 -80 56 -212 79 -295 234
-873 427 -1599 546 -2060 179 -694 214 -793 315 -895 63 -65 123 -97 206 -110
76 -13 1870 -13 1944 -1 107 18 170 49 241 120 48 48 72 82 90 126 l24 60 3
2450 c2 1652 0 2502 -7 2610 -45 675 -272 1283 -654 1750 -80 98 -276 293
-362 360 -227 177 -456 300 -725 389 -457 153 -963 153 -1453 0 -94 -30 -308
-106 -305 -109 2 -1 44 4 93 12 182 29 592 3 845 -52 567 -124 1117 -477 1464
-939 313 -415 489 -902 516 -1421 5 -100 10 -1209 10 -2482 l0 -2303 -665 0
-666 0 1 2323 c1 2320 1 2322 -20 2447 -49 285 -129 517 -261 755 -334 602
-911 1039 -1662 1260 -65 19 -122 37 -127 40 -4 3 -51 69 -104 148 -335 501
-853 845 -1466 972 -211 44 -475 60 -735 45z m500 -586 c405 -55 793 -242
1042 -501 l32 -33 -63 0 c-313 0 -699 -76 -1003 -199 -165 -66 -416 -206 -562
-314 -303 -224 -581 -547 -734 -852 -94 -188 -171 -408 -212 -605 -45 -214
-45 -187 -45 -2607 l0 -2293 -654 0 c-514 0 -655 3 -659 13 -2 6 -2 1094 0
2417 4 2633 2 2566 63 2870 107 536 349 997 720 1371 290 293 594 488 971 622
326 117 749 159 1104 111z m1341 -1120 c37 -5 43 -10 57 -45 18 -46 23 -42
-79 -63 -201 -42 -434 -146 -613 -274 -236 -168 -467 -436 -614 -712 -124
-234 -168 -378 -482 -1590 -35 -135 -90 -346 -123 -470 -33 -124 -79 -297
-102 -385 -24 -88 -65 -243 -92 -345 -61 -225 -127 -476 -198 -750 -29 -113
-56 -208 -59 -212 -7 -8 -4 2406 3 2927 3 233 7 299 25 395 134 719 710 1300
1466 1480 66 16 156 33 200 39 44 6 94 13 110 15 39 6 448 -3 501 -10z m835
-218 c216 -72 510 -276 685 -476 200 -229 337 -510 402 -828 l26 -127 3 -1624
c1 -893 1 -1622 -2 -1620 -2 2 -10 31 -18 64 -23 92 -218 840 -292 1120 -37
138 -76 284 -86 325 -11 41 -49 181 -84 310 -35 129 -107 397 -160 595 -53
198 -127 473 -165 610 -38 138 -82 300 -98 360 -25 93 -114 419 -277 1015 -19
69 -43 161 -55 205 -11 44 -23 88 -26 98 -7 22 6 19 147 -27z"/>
<path d="M7518 5138 l-3 -303 -290 -2 c-262 -2 -291 -4 -302 -19 -10 -14 -13
-90 -13 -315 0 -257 2 -300 16 -313 13 -14 54 -16 299 -16 l283 0 6 -72 c4
-40 4 -172 1 -293 -5 -175 -3 -224 7 -238 13 -17 36 -18 315 -19 165 0 310 3
321 6 17 6 21 19 27 76 4 37 4 78 0 90 -4 13 -4 119 0 236 l7 214 282 0 c206
0 285 3 294 12 17 17 17 619 0 636 -9 9 -87 12 -289 12 -211 0 -280 3 -286 13
-4 6 -7 129 -6 272 2 143 0 275 -3 293 l-5 32 -329 0 -330 0 -2 -302z"/>
</g>
</svg>
